<mxfile host="Electron" modified="2024-01-09T12:02:03.047Z" agent="Mozilla/5.0 (Windows NT 10.0; Win64; x64) AppleWebKit/537.36 (KHTML, like Gecko) draw.io/22.1.2 Chrome/114.0.5735.289 Electron/25.9.4 Safari/537.36" etag="ehyyF4JsJt1t94C1UP_L" version="22.1.2" type="device">
  <diagram name="Pagina-1" id="KrAMYKN802Sa1sQlcGRf">
    <mxGraphModel dx="1416" dy="818" grid="1" gridSize="10" guides="1" tooltips="1" connect="1" arrows="1" fold="1" page="1" pageScale="1" pageWidth="827" pageHeight="1169" math="0" shadow="0">
      <root>
        <mxCell id="0" />
        <mxCell id="1" parent="0" />
        <mxCell id="X-2cT9AtNMiIcICBBnYA-75" value="" style="rounded=0;whiteSpace=wrap;html=1;strokeColor=none;" parent="1" vertex="1">
          <mxGeometry x="200" y="290" width="640" height="580" as="geometry" />
        </mxCell>
        <mxCell id="X-2cT9AtNMiIcICBBnYA-1" value="" style="endArrow=classic;html=1;rounded=0;" parent="1" edge="1">
          <mxGeometry width="50" height="50" relative="1" as="geometry">
            <mxPoint x="320" y="360" as="sourcePoint" />
            <mxPoint x="730" y="360" as="targetPoint" />
          </mxGeometry>
        </mxCell>
        <mxCell id="X-2cT9AtNMiIcICBBnYA-3" value="1" style="rhombus;whiteSpace=wrap;html=1;" parent="1" vertex="1">
          <mxGeometry x="340" y="310" width="40" height="40" as="geometry" />
        </mxCell>
        <mxCell id="X-2cT9AtNMiIcICBBnYA-4" value="2" style="rhombus;whiteSpace=wrap;html=1;" parent="1" vertex="1">
          <mxGeometry x="420" y="310" width="40" height="40" as="geometry" />
        </mxCell>
        <mxCell id="X-2cT9AtNMiIcICBBnYA-5" value="3" style="rhombus;whiteSpace=wrap;html=1;" parent="1" vertex="1">
          <mxGeometry x="500" y="310" width="40" height="40" as="geometry" />
        </mxCell>
        <mxCell id="X-2cT9AtNMiIcICBBnYA-6" value="4" style="rhombus;whiteSpace=wrap;html=1;" parent="1" vertex="1">
          <mxGeometry x="580" y="310" width="40" height="40" as="geometry" />
        </mxCell>
        <mxCell id="X-2cT9AtNMiIcICBBnYA-7" value="5" style="rhombus;whiteSpace=wrap;html=1;" parent="1" vertex="1">
          <mxGeometry x="660" y="310" width="40" height="40" as="geometry" />
        </mxCell>
        <mxCell id="X-2cT9AtNMiIcICBBnYA-8" value="" style="endArrow=classic;html=1;rounded=0;" parent="1" edge="1">
          <mxGeometry width="50" height="50" relative="1" as="geometry">
            <mxPoint x="320" y="480" as="sourcePoint" />
            <mxPoint x="730" y="480" as="targetPoint" />
          </mxGeometry>
        </mxCell>
        <mxCell id="X-2cT9AtNMiIcICBBnYA-26" value="" style="endArrow=none;html=1;rounded=0;" parent="1" edge="1">
          <mxGeometry width="50" height="50" relative="1" as="geometry">
            <mxPoint x="359.9" y="364" as="sourcePoint" />
            <mxPoint x="359.9" y="356" as="targetPoint" />
          </mxGeometry>
        </mxCell>
        <mxCell id="X-2cT9AtNMiIcICBBnYA-27" value="" style="endArrow=none;html=1;rounded=0;" parent="1" edge="1">
          <mxGeometry width="50" height="50" relative="1" as="geometry">
            <mxPoint x="439.9" y="364" as="sourcePoint" />
            <mxPoint x="439.9" y="356" as="targetPoint" />
          </mxGeometry>
        </mxCell>
        <mxCell id="X-2cT9AtNMiIcICBBnYA-28" value="" style="endArrow=none;html=1;rounded=0;" parent="1" edge="1">
          <mxGeometry width="50" height="50" relative="1" as="geometry">
            <mxPoint x="519.9" y="364" as="sourcePoint" />
            <mxPoint x="519.9" y="356" as="targetPoint" />
          </mxGeometry>
        </mxCell>
        <mxCell id="X-2cT9AtNMiIcICBBnYA-29" value="" style="endArrow=none;html=1;rounded=0;" parent="1" edge="1">
          <mxGeometry width="50" height="50" relative="1" as="geometry">
            <mxPoint x="599.9" y="364" as="sourcePoint" />
            <mxPoint x="599.9" y="356" as="targetPoint" />
          </mxGeometry>
        </mxCell>
        <mxCell id="X-2cT9AtNMiIcICBBnYA-30" value="" style="endArrow=none;html=1;rounded=0;" parent="1" edge="1">
          <mxGeometry width="50" height="50" relative="1" as="geometry">
            <mxPoint x="679.9" y="364" as="sourcePoint" />
            <mxPoint x="679.9" y="356" as="targetPoint" />
          </mxGeometry>
        </mxCell>
        <mxCell id="X-2cT9AtNMiIcICBBnYA-31" value="" style="endArrow=none;html=1;rounded=0;" parent="1" edge="1">
          <mxGeometry width="50" height="50" relative="1" as="geometry">
            <mxPoint x="359.92999999999995" y="484" as="sourcePoint" />
            <mxPoint x="359.92999999999995" y="476" as="targetPoint" />
          </mxGeometry>
        </mxCell>
        <mxCell id="X-2cT9AtNMiIcICBBnYA-32" value="" style="endArrow=none;html=1;rounded=0;" parent="1" edge="1">
          <mxGeometry width="50" height="50" relative="1" as="geometry">
            <mxPoint x="439.92999999999995" y="484" as="sourcePoint" />
            <mxPoint x="439.92999999999995" y="476" as="targetPoint" />
          </mxGeometry>
        </mxCell>
        <mxCell id="X-2cT9AtNMiIcICBBnYA-33" value="" style="endArrow=none;html=1;rounded=0;" parent="1" edge="1">
          <mxGeometry width="50" height="50" relative="1" as="geometry">
            <mxPoint x="519.93" y="484" as="sourcePoint" />
            <mxPoint x="519.93" y="476" as="targetPoint" />
          </mxGeometry>
        </mxCell>
        <mxCell id="X-2cT9AtNMiIcICBBnYA-34" value="" style="endArrow=none;html=1;rounded=0;" parent="1" edge="1">
          <mxGeometry width="50" height="50" relative="1" as="geometry">
            <mxPoint x="599.93" y="484" as="sourcePoint" />
            <mxPoint x="599.93" y="476" as="targetPoint" />
          </mxGeometry>
        </mxCell>
        <mxCell id="X-2cT9AtNMiIcICBBnYA-35" value="" style="endArrow=none;html=1;rounded=0;" parent="1" edge="1">
          <mxGeometry width="50" height="50" relative="1" as="geometry">
            <mxPoint x="679.93" y="484" as="sourcePoint" />
            <mxPoint x="679.93" y="476" as="targetPoint" />
          </mxGeometry>
        </mxCell>
        <mxCell id="X-2cT9AtNMiIcICBBnYA-36" value="time" style="text;html=1;align=center;verticalAlign=middle;resizable=0;points=[];autosize=1;strokeColor=none;fillColor=none;" parent="1" vertex="1">
          <mxGeometry x="725" y="345" width="50" height="30" as="geometry" />
        </mxCell>
        <mxCell id="X-2cT9AtNMiIcICBBnYA-37" value="time" style="text;html=1;align=center;verticalAlign=middle;resizable=0;points=[];autosize=1;strokeColor=none;fillColor=none;" parent="1" vertex="1">
          <mxGeometry x="725" y="465" width="50" height="30" as="geometry" />
        </mxCell>
        <mxCell id="X-2cT9AtNMiIcICBBnYA-38" value="" style="endArrow=classic;html=1;rounded=0;" parent="1" edge="1">
          <mxGeometry width="50" height="50" relative="1" as="geometry">
            <mxPoint x="320" y="600" as="sourcePoint" />
            <mxPoint x="730" y="600" as="targetPoint" />
          </mxGeometry>
        </mxCell>
        <mxCell id="X-2cT9AtNMiIcICBBnYA-39" value="1" style="rhombus;whiteSpace=wrap;html=1;" parent="1" vertex="1">
          <mxGeometry x="510" y="520" width="20" height="20" as="geometry" />
        </mxCell>
        <mxCell id="X-2cT9AtNMiIcICBBnYA-40" value="2" style="rhombus;whiteSpace=wrap;html=1;" parent="1" vertex="1">
          <mxGeometry x="510" y="540" width="20" height="20" as="geometry" />
        </mxCell>
        <mxCell id="X-2cT9AtNMiIcICBBnYA-41" value="3" style="rhombus;whiteSpace=wrap;html=1;" parent="1" vertex="1">
          <mxGeometry x="510" y="561" width="20" height="20" as="geometry" />
        </mxCell>
        <mxCell id="X-2cT9AtNMiIcICBBnYA-42" value="" style="shape=partialRectangle;whiteSpace=wrap;html=1;bottom=1;right=1;left=1;top=0;fillColor=none;routingCenterX=-0.5;rotation=-180;" parent="1" vertex="1">
          <mxGeometry x="510" y="510" width="20" height="9" as="geometry" />
        </mxCell>
        <mxCell id="X-2cT9AtNMiIcICBBnYA-43" value="" style="shape=partialRectangle;whiteSpace=wrap;html=1;bottom=1;right=1;left=1;top=0;fillColor=none;routingCenterX=-0.5;rotation=0;" parent="1" vertex="1">
          <mxGeometry x="510" y="581" width="20" height="9" as="geometry" />
        </mxCell>
        <mxCell id="X-2cT9AtNMiIcICBBnYA-54" value="" style="endArrow=none;html=1;rounded=0;" parent="1" edge="1">
          <mxGeometry width="50" height="50" relative="1" as="geometry">
            <mxPoint x="359.92999999999995" y="604" as="sourcePoint" />
            <mxPoint x="359.92999999999995" y="596" as="targetPoint" />
          </mxGeometry>
        </mxCell>
        <mxCell id="X-2cT9AtNMiIcICBBnYA-55" value="" style="endArrow=none;html=1;rounded=0;" parent="1" edge="1">
          <mxGeometry width="50" height="50" relative="1" as="geometry">
            <mxPoint x="439.92999999999995" y="604" as="sourcePoint" />
            <mxPoint x="439.92999999999995" y="596" as="targetPoint" />
          </mxGeometry>
        </mxCell>
        <mxCell id="X-2cT9AtNMiIcICBBnYA-56" value="" style="endArrow=none;html=1;rounded=0;" parent="1" edge="1">
          <mxGeometry width="50" height="50" relative="1" as="geometry">
            <mxPoint x="519.93" y="604" as="sourcePoint" />
            <mxPoint x="519.93" y="596" as="targetPoint" />
          </mxGeometry>
        </mxCell>
        <mxCell id="X-2cT9AtNMiIcICBBnYA-57" value="" style="endArrow=none;html=1;rounded=0;" parent="1" edge="1">
          <mxGeometry width="50" height="50" relative="1" as="geometry">
            <mxPoint x="599.93" y="604" as="sourcePoint" />
            <mxPoint x="599.93" y="596" as="targetPoint" />
          </mxGeometry>
        </mxCell>
        <mxCell id="X-2cT9AtNMiIcICBBnYA-58" value="" style="endArrow=none;html=1;rounded=0;" parent="1" edge="1">
          <mxGeometry width="50" height="50" relative="1" as="geometry">
            <mxPoint x="679.93" y="604" as="sourcePoint" />
            <mxPoint x="679.93" y="596" as="targetPoint" />
          </mxGeometry>
        </mxCell>
        <mxCell id="X-2cT9AtNMiIcICBBnYA-59" value="time" style="text;html=1;align=center;verticalAlign=middle;resizable=0;points=[];autosize=1;strokeColor=none;fillColor=none;" parent="1" vertex="1">
          <mxGeometry x="725" y="585" width="50" height="30" as="geometry" />
        </mxCell>
        <mxCell id="X-2cT9AtNMiIcICBBnYA-60" value="2" style="rhombus;whiteSpace=wrap;html=1;" parent="1" vertex="1">
          <mxGeometry x="510" y="420" width="20" height="20" as="geometry" />
        </mxCell>
        <mxCell id="X-2cT9AtNMiIcICBBnYA-61" value="3" style="rhombus;whiteSpace=wrap;html=1;" parent="1" vertex="1">
          <mxGeometry x="510" y="440" width="20" height="20" as="geometry" />
        </mxCell>
        <mxCell id="X-2cT9AtNMiIcICBBnYA-62" value="" style="shape=partialRectangle;whiteSpace=wrap;html=1;bottom=1;right=1;left=1;top=0;fillColor=none;routingCenterX=-0.5;rotation=-180;" parent="1" vertex="1">
          <mxGeometry x="510" y="410" width="20" height="9" as="geometry" />
        </mxCell>
        <mxCell id="X-2cT9AtNMiIcICBBnYA-63" value="" style="shape=partialRectangle;whiteSpace=wrap;html=1;bottom=1;right=1;left=1;top=0;fillColor=none;routingCenterX=-0.5;rotation=0;" parent="1" vertex="1">
          <mxGeometry x="510" y="461" width="20" height="9" as="geometry" />
        </mxCell>
        <mxCell id="X-2cT9AtNMiIcICBBnYA-64" value="3" style="rhombus;whiteSpace=wrap;html=1;" parent="1" vertex="1">
          <mxGeometry x="590" y="420" width="20" height="20" as="geometry" />
        </mxCell>
        <mxCell id="X-2cT9AtNMiIcICBBnYA-65" value="4" style="rhombus;whiteSpace=wrap;html=1;" parent="1" vertex="1">
          <mxGeometry x="590" y="440" width="20" height="20" as="geometry" />
        </mxCell>
        <mxCell id="X-2cT9AtNMiIcICBBnYA-66" value="" style="shape=partialRectangle;whiteSpace=wrap;html=1;bottom=1;right=1;left=1;top=0;fillColor=none;routingCenterX=-0.5;rotation=-180;" parent="1" vertex="1">
          <mxGeometry x="590" y="410" width="20" height="9" as="geometry" />
        </mxCell>
        <mxCell id="X-2cT9AtNMiIcICBBnYA-67" value="" style="shape=partialRectangle;whiteSpace=wrap;html=1;bottom=1;right=1;left=1;top=0;fillColor=none;routingCenterX=-0.5;rotation=0;" parent="1" vertex="1">
          <mxGeometry x="590" y="461" width="20" height="9" as="geometry" />
        </mxCell>
        <mxCell id="X-2cT9AtNMiIcICBBnYA-68" value="4" style="rhombus;whiteSpace=wrap;html=1;" parent="1" vertex="1">
          <mxGeometry x="670" y="420" width="20" height="20" as="geometry" />
        </mxCell>
        <mxCell id="X-2cT9AtNMiIcICBBnYA-69" value="5" style="rhombus;whiteSpace=wrap;html=1;" parent="1" vertex="1">
          <mxGeometry x="670" y="440" width="20" height="20" as="geometry" />
        </mxCell>
        <mxCell id="X-2cT9AtNMiIcICBBnYA-70" value="" style="shape=partialRectangle;whiteSpace=wrap;html=1;bottom=1;right=1;left=1;top=0;fillColor=none;routingCenterX=-0.5;rotation=-180;" parent="1" vertex="1">
          <mxGeometry x="670" y="410" width="20" height="9" as="geometry" />
        </mxCell>
        <mxCell id="X-2cT9AtNMiIcICBBnYA-71" value="" style="shape=partialRectangle;whiteSpace=wrap;html=1;bottom=1;right=1;left=1;top=0;fillColor=none;routingCenterX=-0.5;rotation=0;" parent="1" vertex="1">
          <mxGeometry x="670" y="461" width="20" height="9" as="geometry" />
        </mxCell>
        <mxCell id="X-2cT9AtNMiIcICBBnYA-72" value="s" style="text;html=1;align=center;verticalAlign=middle;resizable=0;points=[];autosize=1;strokeColor=none;fillColor=none;" parent="1" vertex="1">
          <mxGeometry x="291" y="345" width="30" height="30" as="geometry" />
        </mxCell>
        <mxCell id="X-2cT9AtNMiIcICBBnYA-73" value="ngrams(s, 2)" style="text;html=1;align=center;verticalAlign=middle;resizable=0;points=[];autosize=1;strokeColor=none;fillColor=none;" parent="1" vertex="1">
          <mxGeometry x="232" y="465" width="90" height="30" as="geometry" />
        </mxCell>
        <mxCell id="X-2cT9AtNMiIcICBBnYA-74" value="ngrams(s, 3)" style="text;html=1;align=center;verticalAlign=middle;resizable=0;points=[];autosize=1;strokeColor=none;fillColor=none;" parent="1" vertex="1">
          <mxGeometry x="232" y="585" width="90" height="30" as="geometry" />
        </mxCell>
        <mxCell id="X-2cT9AtNMiIcICBBnYA-76" value="" style="endArrow=classic;html=1;rounded=0;" parent="1" edge="1">
          <mxGeometry width="50" height="50" relative="1" as="geometry">
            <mxPoint x="320" y="720" as="sourcePoint" />
            <mxPoint x="730" y="720" as="targetPoint" />
          </mxGeometry>
        </mxCell>
        <mxCell id="X-2cT9AtNMiIcICBBnYA-81" value="" style="endArrow=none;html=1;rounded=0;" parent="1" edge="1">
          <mxGeometry width="50" height="50" relative="1" as="geometry">
            <mxPoint x="359.92999999999995" y="724" as="sourcePoint" />
            <mxPoint x="359.92999999999995" y="716" as="targetPoint" />
          </mxGeometry>
        </mxCell>
        <mxCell id="X-2cT9AtNMiIcICBBnYA-82" value="" style="endArrow=none;html=1;rounded=0;" parent="1" edge="1">
          <mxGeometry width="50" height="50" relative="1" as="geometry">
            <mxPoint x="439.92999999999995" y="724" as="sourcePoint" />
            <mxPoint x="439.92999999999995" y="716" as="targetPoint" />
          </mxGeometry>
        </mxCell>
        <mxCell id="X-2cT9AtNMiIcICBBnYA-83" value="" style="endArrow=none;html=1;rounded=0;" parent="1" edge="1">
          <mxGeometry width="50" height="50" relative="1" as="geometry">
            <mxPoint x="519.93" y="724" as="sourcePoint" />
            <mxPoint x="519.93" y="716" as="targetPoint" />
          </mxGeometry>
        </mxCell>
        <mxCell id="X-2cT9AtNMiIcICBBnYA-84" value="" style="endArrow=none;html=1;rounded=0;" parent="1" edge="1">
          <mxGeometry width="50" height="50" relative="1" as="geometry">
            <mxPoint x="599.93" y="724" as="sourcePoint" />
            <mxPoint x="599.93" y="716" as="targetPoint" />
          </mxGeometry>
        </mxCell>
        <mxCell id="X-2cT9AtNMiIcICBBnYA-85" value="" style="endArrow=none;html=1;rounded=0;" parent="1" edge="1">
          <mxGeometry width="50" height="50" relative="1" as="geometry">
            <mxPoint x="679.93" y="724" as="sourcePoint" />
            <mxPoint x="679.93" y="716" as="targetPoint" />
          </mxGeometry>
        </mxCell>
        <mxCell id="X-2cT9AtNMiIcICBBnYA-86" value="time" style="text;html=1;align=center;verticalAlign=middle;resizable=0;points=[];autosize=1;strokeColor=none;fillColor=none;" parent="1" vertex="1">
          <mxGeometry x="725" y="705" width="50" height="30" as="geometry" />
        </mxCell>
        <mxCell id="X-2cT9AtNMiIcICBBnYA-87" value="" style="endArrow=classic;html=1;rounded=0;" parent="1" edge="1">
          <mxGeometry width="50" height="50" relative="1" as="geometry">
            <mxPoint x="320" y="840" as="sourcePoint" />
            <mxPoint x="730" y="840" as="targetPoint" />
          </mxGeometry>
        </mxCell>
        <mxCell id="X-2cT9AtNMiIcICBBnYA-103" value="" style="endArrow=none;html=1;rounded=0;" parent="1" edge="1">
          <mxGeometry width="50" height="50" relative="1" as="geometry">
            <mxPoint x="359.92999999999995" y="844" as="sourcePoint" />
            <mxPoint x="359.92999999999995" y="836" as="targetPoint" />
          </mxGeometry>
        </mxCell>
        <mxCell id="X-2cT9AtNMiIcICBBnYA-104" value="" style="endArrow=none;html=1;rounded=0;" parent="1" edge="1">
          <mxGeometry width="50" height="50" relative="1" as="geometry">
            <mxPoint x="439.92999999999995" y="844" as="sourcePoint" />
            <mxPoint x="439.92999999999995" y="836" as="targetPoint" />
          </mxGeometry>
        </mxCell>
        <mxCell id="X-2cT9AtNMiIcICBBnYA-105" value="" style="endArrow=none;html=1;rounded=0;" parent="1" edge="1">
          <mxGeometry width="50" height="50" relative="1" as="geometry">
            <mxPoint x="519.93" y="844" as="sourcePoint" />
            <mxPoint x="519.93" y="836" as="targetPoint" />
          </mxGeometry>
        </mxCell>
        <mxCell id="X-2cT9AtNMiIcICBBnYA-106" value="" style="endArrow=none;html=1;rounded=0;" parent="1" edge="1">
          <mxGeometry width="50" height="50" relative="1" as="geometry">
            <mxPoint x="599.93" y="844" as="sourcePoint" />
            <mxPoint x="599.93" y="836" as="targetPoint" />
          </mxGeometry>
        </mxCell>
        <mxCell id="X-2cT9AtNMiIcICBBnYA-107" value="" style="endArrow=none;html=1;rounded=0;" parent="1" edge="1">
          <mxGeometry width="50" height="50" relative="1" as="geometry">
            <mxPoint x="679.93" y="844" as="sourcePoint" />
            <mxPoint x="679.93" y="836" as="targetPoint" />
          </mxGeometry>
        </mxCell>
        <mxCell id="X-2cT9AtNMiIcICBBnYA-108" value="time" style="text;html=1;align=center;verticalAlign=middle;resizable=0;points=[];autosize=1;strokeColor=none;fillColor=none;" parent="1" vertex="1">
          <mxGeometry x="725" y="825" width="50" height="30" as="geometry" />
        </mxCell>
        <mxCell id="X-2cT9AtNMiIcICBBnYA-121" value="ngramsOption(s, 2)" style="text;html=1;align=center;verticalAlign=middle;resizable=0;points=[];autosize=1;strokeColor=none;fillColor=none;" parent="1" vertex="1">
          <mxGeometry x="195" y="705" width="130" height="30" as="geometry" />
        </mxCell>
        <mxCell id="X-2cT9AtNMiIcICBBnYA-122" value="ngramsOption(s, 3)" style="text;html=1;align=center;verticalAlign=middle;resizable=0;points=[];autosize=1;strokeColor=none;fillColor=none;" parent="1" vertex="1">
          <mxGeometry x="195" y="825" width="130" height="30" as="geometry" />
        </mxCell>
        <mxCell id="umXss4XSFMtkoOehGp6l-1" value="2" style="rhombus;whiteSpace=wrap;html=1;" vertex="1" parent="1">
          <mxGeometry x="590" y="520" width="20" height="20" as="geometry" />
        </mxCell>
        <mxCell id="umXss4XSFMtkoOehGp6l-2" value="3" style="rhombus;whiteSpace=wrap;html=1;" vertex="1" parent="1">
          <mxGeometry x="590" y="540" width="20" height="20" as="geometry" />
        </mxCell>
        <mxCell id="umXss4XSFMtkoOehGp6l-3" value="4" style="rhombus;whiteSpace=wrap;html=1;" vertex="1" parent="1">
          <mxGeometry x="590" y="561" width="20" height="20" as="geometry" />
        </mxCell>
        <mxCell id="umXss4XSFMtkoOehGp6l-4" value="" style="shape=partialRectangle;whiteSpace=wrap;html=1;bottom=1;right=1;left=1;top=0;fillColor=none;routingCenterX=-0.5;rotation=-180;" vertex="1" parent="1">
          <mxGeometry x="590" y="510" width="20" height="9" as="geometry" />
        </mxCell>
        <mxCell id="umXss4XSFMtkoOehGp6l-5" value="" style="shape=partialRectangle;whiteSpace=wrap;html=1;bottom=1;right=1;left=1;top=0;fillColor=none;routingCenterX=-0.5;rotation=0;" vertex="1" parent="1">
          <mxGeometry x="590" y="581" width="20" height="9" as="geometry" />
        </mxCell>
        <mxCell id="umXss4XSFMtkoOehGp6l-6" value="3" style="rhombus;whiteSpace=wrap;html=1;" vertex="1" parent="1">
          <mxGeometry x="670" y="520" width="20" height="20" as="geometry" />
        </mxCell>
        <mxCell id="umXss4XSFMtkoOehGp6l-7" value="4" style="rhombus;whiteSpace=wrap;html=1;" vertex="1" parent="1">
          <mxGeometry x="670" y="540" width="20" height="20" as="geometry" />
        </mxCell>
        <mxCell id="umXss4XSFMtkoOehGp6l-8" value="5" style="rhombus;whiteSpace=wrap;html=1;" vertex="1" parent="1">
          <mxGeometry x="670" y="561" width="20" height="20" as="geometry" />
        </mxCell>
        <mxCell id="umXss4XSFMtkoOehGp6l-9" value="" style="shape=partialRectangle;whiteSpace=wrap;html=1;bottom=1;right=1;left=1;top=0;fillColor=none;routingCenterX=-0.5;rotation=-180;" vertex="1" parent="1">
          <mxGeometry x="670" y="510" width="20" height="9" as="geometry" />
        </mxCell>
        <mxCell id="umXss4XSFMtkoOehGp6l-10" value="" style="shape=partialRectangle;whiteSpace=wrap;html=1;bottom=1;right=1;left=1;top=0;fillColor=none;routingCenterX=-0.5;rotation=0;" vertex="1" parent="1">
          <mxGeometry x="670" y="581" width="20" height="9" as="geometry" />
        </mxCell>
        <mxCell id="umXss4XSFMtkoOehGp6l-11" value="1" style="rhombus;whiteSpace=wrap;html=1;" vertex="1" parent="1">
          <mxGeometry x="350" y="660" width="20" height="20" as="geometry" />
        </mxCell>
        <mxCell id="umXss4XSFMtkoOehGp6l-12" value="?" style="rhombus;whiteSpace=wrap;html=1;" vertex="1" parent="1">
          <mxGeometry x="350" y="680" width="20" height="20" as="geometry" />
        </mxCell>
        <mxCell id="umXss4XSFMtkoOehGp6l-13" value="" style="shape=partialRectangle;whiteSpace=wrap;html=1;bottom=1;right=1;left=1;top=0;fillColor=none;routingCenterX=-0.5;rotation=-180;" vertex="1" parent="1">
          <mxGeometry x="350" y="650" width="20" height="9" as="geometry" />
        </mxCell>
        <mxCell id="umXss4XSFMtkoOehGp6l-14" value="" style="shape=partialRectangle;whiteSpace=wrap;html=1;bottom=1;right=1;left=1;top=0;fillColor=none;routingCenterX=-0.5;rotation=0;" vertex="1" parent="1">
          <mxGeometry x="350" y="701" width="20" height="9" as="geometry" />
        </mxCell>
        <mxCell id="umXss4XSFMtkoOehGp6l-19" value="1" style="rhombus;whiteSpace=wrap;html=1;" vertex="1" parent="1">
          <mxGeometry x="430" y="660" width="20" height="20" as="geometry" />
        </mxCell>
        <mxCell id="umXss4XSFMtkoOehGp6l-20" value="2" style="rhombus;whiteSpace=wrap;html=1;" vertex="1" parent="1">
          <mxGeometry x="430" y="680" width="20" height="20" as="geometry" />
        </mxCell>
        <mxCell id="umXss4XSFMtkoOehGp6l-21" value="" style="shape=partialRectangle;whiteSpace=wrap;html=1;bottom=1;right=1;left=1;top=0;fillColor=none;routingCenterX=-0.5;rotation=-180;" vertex="1" parent="1">
          <mxGeometry x="430" y="650" width="20" height="9" as="geometry" />
        </mxCell>
        <mxCell id="umXss4XSFMtkoOehGp6l-22" value="" style="shape=partialRectangle;whiteSpace=wrap;html=1;bottom=1;right=1;left=1;top=0;fillColor=none;routingCenterX=-0.5;rotation=0;" vertex="1" parent="1">
          <mxGeometry x="430" y="701" width="20" height="9" as="geometry" />
        </mxCell>
        <mxCell id="umXss4XSFMtkoOehGp6l-23" value="2" style="rhombus;whiteSpace=wrap;html=1;" vertex="1" parent="1">
          <mxGeometry x="510" y="660" width="20" height="20" as="geometry" />
        </mxCell>
        <mxCell id="umXss4XSFMtkoOehGp6l-24" value="3" style="rhombus;whiteSpace=wrap;html=1;" vertex="1" parent="1">
          <mxGeometry x="510" y="680" width="20" height="20" as="geometry" />
        </mxCell>
        <mxCell id="umXss4XSFMtkoOehGp6l-25" value="" style="shape=partialRectangle;whiteSpace=wrap;html=1;bottom=1;right=1;left=1;top=0;fillColor=none;routingCenterX=-0.5;rotation=-180;" vertex="1" parent="1">
          <mxGeometry x="510" y="650" width="20" height="9" as="geometry" />
        </mxCell>
        <mxCell id="umXss4XSFMtkoOehGp6l-26" value="" style="shape=partialRectangle;whiteSpace=wrap;html=1;bottom=1;right=1;left=1;top=0;fillColor=none;routingCenterX=-0.5;rotation=0;" vertex="1" parent="1">
          <mxGeometry x="510" y="701" width="20" height="9" as="geometry" />
        </mxCell>
        <mxCell id="umXss4XSFMtkoOehGp6l-27" value="3" style="rhombus;whiteSpace=wrap;html=1;" vertex="1" parent="1">
          <mxGeometry x="590" y="660" width="20" height="20" as="geometry" />
        </mxCell>
        <mxCell id="umXss4XSFMtkoOehGp6l-28" value="4" style="rhombus;whiteSpace=wrap;html=1;" vertex="1" parent="1">
          <mxGeometry x="590" y="680" width="20" height="20" as="geometry" />
        </mxCell>
        <mxCell id="umXss4XSFMtkoOehGp6l-29" value="" style="shape=partialRectangle;whiteSpace=wrap;html=1;bottom=1;right=1;left=1;top=0;fillColor=none;routingCenterX=-0.5;rotation=-180;" vertex="1" parent="1">
          <mxGeometry x="590" y="650" width="20" height="9" as="geometry" />
        </mxCell>
        <mxCell id="umXss4XSFMtkoOehGp6l-30" value="" style="shape=partialRectangle;whiteSpace=wrap;html=1;bottom=1;right=1;left=1;top=0;fillColor=none;routingCenterX=-0.5;rotation=0;" vertex="1" parent="1">
          <mxGeometry x="590" y="701" width="20" height="9" as="geometry" />
        </mxCell>
        <mxCell id="umXss4XSFMtkoOehGp6l-31" value="4" style="rhombus;whiteSpace=wrap;html=1;" vertex="1" parent="1">
          <mxGeometry x="670" y="660" width="20" height="20" as="geometry" />
        </mxCell>
        <mxCell id="umXss4XSFMtkoOehGp6l-32" value="5" style="rhombus;whiteSpace=wrap;html=1;" vertex="1" parent="1">
          <mxGeometry x="670" y="680" width="20" height="20" as="geometry" />
        </mxCell>
        <mxCell id="umXss4XSFMtkoOehGp6l-33" value="" style="shape=partialRectangle;whiteSpace=wrap;html=1;bottom=1;right=1;left=1;top=0;fillColor=none;routingCenterX=-0.5;rotation=-180;" vertex="1" parent="1">
          <mxGeometry x="670" y="650" width="20" height="9" as="geometry" />
        </mxCell>
        <mxCell id="umXss4XSFMtkoOehGp6l-34" value="" style="shape=partialRectangle;whiteSpace=wrap;html=1;bottom=1;right=1;left=1;top=0;fillColor=none;routingCenterX=-0.5;rotation=0;" vertex="1" parent="1">
          <mxGeometry x="670" y="701" width="20" height="9" as="geometry" />
        </mxCell>
        <mxCell id="umXss4XSFMtkoOehGp6l-35" value="1" style="rhombus;whiteSpace=wrap;html=1;" vertex="1" parent="1">
          <mxGeometry x="350" y="760" width="20" height="20" as="geometry" />
        </mxCell>
        <mxCell id="umXss4XSFMtkoOehGp6l-36" value="?" style="rhombus;whiteSpace=wrap;html=1;" vertex="1" parent="1">
          <mxGeometry x="350" y="780" width="20" height="20" as="geometry" />
        </mxCell>
        <mxCell id="umXss4XSFMtkoOehGp6l-37" value="?" style="rhombus;whiteSpace=wrap;html=1;" vertex="1" parent="1">
          <mxGeometry x="350" y="801" width="20" height="20" as="geometry" />
        </mxCell>
        <mxCell id="umXss4XSFMtkoOehGp6l-38" value="" style="shape=partialRectangle;whiteSpace=wrap;html=1;bottom=1;right=1;left=1;top=0;fillColor=none;routingCenterX=-0.5;rotation=-180;" vertex="1" parent="1">
          <mxGeometry x="350" y="750" width="20" height="9" as="geometry" />
        </mxCell>
        <mxCell id="umXss4XSFMtkoOehGp6l-39" value="" style="shape=partialRectangle;whiteSpace=wrap;html=1;bottom=1;right=1;left=1;top=0;fillColor=none;routingCenterX=-0.5;rotation=0;" vertex="1" parent="1">
          <mxGeometry x="350" y="821" width="20" height="9" as="geometry" />
        </mxCell>
        <mxCell id="umXss4XSFMtkoOehGp6l-40" value="1" style="rhombus;whiteSpace=wrap;html=1;" vertex="1" parent="1">
          <mxGeometry x="430" y="760" width="20" height="20" as="geometry" />
        </mxCell>
        <mxCell id="umXss4XSFMtkoOehGp6l-41" value="2" style="rhombus;whiteSpace=wrap;html=1;" vertex="1" parent="1">
          <mxGeometry x="430" y="780" width="20" height="20" as="geometry" />
        </mxCell>
        <mxCell id="umXss4XSFMtkoOehGp6l-42" value="?" style="rhombus;whiteSpace=wrap;html=1;" vertex="1" parent="1">
          <mxGeometry x="430" y="801" width="20" height="20" as="geometry" />
        </mxCell>
        <mxCell id="umXss4XSFMtkoOehGp6l-43" value="" style="shape=partialRectangle;whiteSpace=wrap;html=1;bottom=1;right=1;left=1;top=0;fillColor=none;routingCenterX=-0.5;rotation=-180;" vertex="1" parent="1">
          <mxGeometry x="430" y="750" width="20" height="9" as="geometry" />
        </mxCell>
        <mxCell id="umXss4XSFMtkoOehGp6l-44" value="" style="shape=partialRectangle;whiteSpace=wrap;html=1;bottom=1;right=1;left=1;top=0;fillColor=none;routingCenterX=-0.5;rotation=0;" vertex="1" parent="1">
          <mxGeometry x="430" y="821" width="20" height="9" as="geometry" />
        </mxCell>
        <mxCell id="umXss4XSFMtkoOehGp6l-45" value="1" style="rhombus;whiteSpace=wrap;html=1;" vertex="1" parent="1">
          <mxGeometry x="510" y="760" width="20" height="20" as="geometry" />
        </mxCell>
        <mxCell id="umXss4XSFMtkoOehGp6l-46" value="2" style="rhombus;whiteSpace=wrap;html=1;" vertex="1" parent="1">
          <mxGeometry x="510" y="780" width="20" height="20" as="geometry" />
        </mxCell>
        <mxCell id="umXss4XSFMtkoOehGp6l-47" value="3" style="rhombus;whiteSpace=wrap;html=1;" vertex="1" parent="1">
          <mxGeometry x="510" y="801" width="20" height="20" as="geometry" />
        </mxCell>
        <mxCell id="umXss4XSFMtkoOehGp6l-48" value="" style="shape=partialRectangle;whiteSpace=wrap;html=1;bottom=1;right=1;left=1;top=0;fillColor=none;routingCenterX=-0.5;rotation=-180;" vertex="1" parent="1">
          <mxGeometry x="510" y="750" width="20" height="9" as="geometry" />
        </mxCell>
        <mxCell id="umXss4XSFMtkoOehGp6l-49" value="" style="shape=partialRectangle;whiteSpace=wrap;html=1;bottom=1;right=1;left=1;top=0;fillColor=none;routingCenterX=-0.5;rotation=0;" vertex="1" parent="1">
          <mxGeometry x="510" y="821" width="20" height="9" as="geometry" />
        </mxCell>
        <mxCell id="umXss4XSFMtkoOehGp6l-50" value="2" style="rhombus;whiteSpace=wrap;html=1;" vertex="1" parent="1">
          <mxGeometry x="590" y="760" width="20" height="20" as="geometry" />
        </mxCell>
        <mxCell id="umXss4XSFMtkoOehGp6l-51" value="3" style="rhombus;whiteSpace=wrap;html=1;" vertex="1" parent="1">
          <mxGeometry x="590" y="780" width="20" height="20" as="geometry" />
        </mxCell>
        <mxCell id="umXss4XSFMtkoOehGp6l-52" value="4" style="rhombus;whiteSpace=wrap;html=1;" vertex="1" parent="1">
          <mxGeometry x="590" y="801" width="20" height="20" as="geometry" />
        </mxCell>
        <mxCell id="umXss4XSFMtkoOehGp6l-53" value="" style="shape=partialRectangle;whiteSpace=wrap;html=1;bottom=1;right=1;left=1;top=0;fillColor=none;routingCenterX=-0.5;rotation=-180;" vertex="1" parent="1">
          <mxGeometry x="590" y="750" width="20" height="9" as="geometry" />
        </mxCell>
        <mxCell id="umXss4XSFMtkoOehGp6l-54" value="" style="shape=partialRectangle;whiteSpace=wrap;html=1;bottom=1;right=1;left=1;top=0;fillColor=none;routingCenterX=-0.5;rotation=0;" vertex="1" parent="1">
          <mxGeometry x="590" y="821" width="20" height="9" as="geometry" />
        </mxCell>
        <mxCell id="umXss4XSFMtkoOehGp6l-55" value="3" style="rhombus;whiteSpace=wrap;html=1;" vertex="1" parent="1">
          <mxGeometry x="670" y="760" width="20" height="20" as="geometry" />
        </mxCell>
        <mxCell id="umXss4XSFMtkoOehGp6l-56" value="4" style="rhombus;whiteSpace=wrap;html=1;" vertex="1" parent="1">
          <mxGeometry x="670" y="780" width="20" height="20" as="geometry" />
        </mxCell>
        <mxCell id="umXss4XSFMtkoOehGp6l-57" value="5" style="rhombus;whiteSpace=wrap;html=1;" vertex="1" parent="1">
          <mxGeometry x="670" y="801" width="20" height="20" as="geometry" />
        </mxCell>
        <mxCell id="umXss4XSFMtkoOehGp6l-58" value="" style="shape=partialRectangle;whiteSpace=wrap;html=1;bottom=1;right=1;left=1;top=0;fillColor=none;routingCenterX=-0.5;rotation=-180;" vertex="1" parent="1">
          <mxGeometry x="670" y="750" width="20" height="9" as="geometry" />
        </mxCell>
        <mxCell id="umXss4XSFMtkoOehGp6l-59" value="" style="shape=partialRectangle;whiteSpace=wrap;html=1;bottom=1;right=1;left=1;top=0;fillColor=none;routingCenterX=-0.5;rotation=0;" vertex="1" parent="1">
          <mxGeometry x="670" y="821" width="20" height="9" as="geometry" />
        </mxCell>
      </root>
    </mxGraphModel>
  </diagram>
</mxfile>
